<svg xmlns="http://www.w3.org/2000/svg" viewBox="0 0 512 512"><path d="M256 128C112.448 128 0 184.229 0 256s112.448 128 256 128 256-56.229 256-128-112.448-128-256-128z" fill="#303c42"/><path d="M256 362.667c-61.335 0-117.936-11.428-160.259-29.673l8.592-34.327h37.417c28.208 0 52.688-19.115 59.542-46.49l1.865-7.51c3.198-12.75.385-26.01-7.698-36.365C187.365 197.938 175.198 192 162.052 192h-44.719a10.663 10.663 0 0 0-10.344 8.083l-30.88 123.521C42.083 305.051 21.333 281.396 21.333 256c0-57.823 107.469-106.667 234.667-106.667S490.667 198.177 490.667 256 383.198 362.667 256 362.667z" fill="#82b1ff"/><path d="M32 266.667C32 208.844 139.469 160 266.667 160c89.076 0 168.319 23.992 207.911 58.208-34.405-39.797-120.513-68.875-218.578-68.875-127.198 0-234.667 48.844-234.667 106.667 0 17.022 9.491 33.217 25.884 47.663C37.439 292.076 32 279.602 32 266.667z" opacity=".2" fill="#fff"/><path d="M109.667 277.333l16-64h36.385c6.521 0 12.573 2.948 16.583 8.094 4.021 5.146 5.417 11.729 3.823 18.073l-1.865 7.51a39.985 39.985 0 0 1-38.844 30.323h-32.082z" fill="#82b1ff"/><path d="M109.667 277.333l16-64h36.385c6.521 0 12.573 2.948 16.583 8.094 4.021 5.146 5.417 11.729 3.823 18.073l-1.865 7.51a39.985 39.985 0 0 1-38.844 30.323h-32.082z" fill="#82b1ff"/><g fill="#303c42"><path d="M407.385 192h-44.719a10.663 10.663 0 0 0-10.344 8.083l-21.281 85.094c-.042.156-.073.302-.115.448l-10.604 42.458c-1.438 5.708 2.042 11.5 7.76 12.927.865.219 1.74.323 2.594.323 4.781 0 9.125-3.229 10.333-8.083l8.656-34.583h37.417c28.208 0 52.688-19.115 59.542-46.49l1.865-7.51c3.198-12.75.385-26.01-7.698-36.365-8.093-10.364-20.26-16.302-33.406-16.302zm20.407 47.5l-1.865 7.51a39.985 39.985 0 0 1-38.844 30.323H355l16-64h36.385c6.521 0 12.573 2.948 16.583 8.094 4.022 5.146 5.417 11.729 3.824 18.073zM313.5 205.021C306.76 196.75 296.781 192 286.104 192H252.29l3.533-19.427c1.063-5.792-2.781-11.344-8.583-12.396-5.76-1.063-11.354 2.781-12.396 8.583L213.51 286.094c-1.063 5.792 2.781 11.344 8.583 12.396.646.125 1.281.177 1.917.177 5.063 0 9.552-3.604 10.479-8.76l13.922-76.573h37.693c4.229 0 8.177 1.875 10.844 5.156a13.926 13.926 0 0 1 2.844 11.677l-11.573 55.667c-1.198 5.76 2.51 11.406 8.281 12.615a10.677 10.677 0 0 0 12.615-8.281l11.573-55.667c2.166-10.449-.459-21.199-7.188-29.48z"/></g><linearGradient id="a" gradientUnits="userSpaceOnUse" x1="-44.836" y1="639.211" x2="-24.57" y2="629.758" gradientTransform="matrix(21.3333 0 0 -21.3333 996.333 13791.667)"><stop offset="0" stop-color="#fff" stop-opacity=".2"/><stop offset="1" stop-color="#fff" stop-opacity="0"/></linearGradient><path d="M256 128C112.448 128 0 184.229 0 256s112.448 128 256 128 256-56.229 256-128-112.448-128-256-128z" fill="url(#a)"/></svg>